<?xml version="1.0" encoding="utf-8"?>
<svg viewBox="376 622.2999877929688 107.5999755859375 107.70001220703125" width="107.5999755859375" height="107.70001220703125" xmlns="http://www.w3.org/2000/svg"><path d="M420.6,646.2c0,14.8-5.3,27.4-15.8,38c-10.5,10.5-23.3,15.8-38.1,15.8c-14.8,0-27.4-5.3-37.9-15.8&#10;&#9;&#9;&#9;C318.2,673.7,313,661,313,646.1c0-14.9,5.2-27.6,15.7-38.1c10.5-10.5,23.2-15.7,38.1-15.7c14.9,0,27.6,5.3,38.1,15.8&#10;&#9;&#9;&#9;C415.3,618.6,420.6,631.4,420.6,646.2z M415.3,646.2c0-13.5-4.7-25-14.2-34.5c-9.5-9.5-21-14.2-34.5-14.2&#10;&#9;&#9;&#9;c-13.4,0-24.9,4.7-34.4,14.2c-9.5,9.5-14.3,21-14.3,34.5c0,13.5,4.8,25,14.3,34.5c9.5,9.5,21,14.2,34.4,14.2&#10;&#9;&#9;&#9;c13.5,0,25-4.7,34.5-14.2C410.6,671.2,415.3,659.7,415.3,646.2z M404.1,670.7c0.1,1.9-0.8,2.8-2.7,2.8c-1.6,0-2.4-0.8-2.5-2.4&#10;&#9;&#9;&#9;c-0.9-13.6-11.6-20.4-32.2-20.5c-20.6-0.1-31.3,6.7-32.1,20.5c-0.1,1.7-1,2.5-2.5,2.5c-1.8,0-2.6-0.9-2.5-2.8&#10;&#9;&#9;&#9;c1.2-16.9,13.6-25.3,37.2-25.3c23.8,0,36.3,8.4,37.5,25.3h-1.8v-0.1H404.1z M344,625.6c0.7,3.5,1,6.2,1,8.2c0,2.1-0.4,3.9-1.3,5.5&#10;&#9;&#9;&#9;c-0.9,1.6-2.2,2.4-4,2.4c-3.2,0-4.8-1.6-4.8-4.8c0-2.1,0.9-3.4,2.7-4c0.5-0.1,1.2-0.3,2.2-0.6C341.4,631.8,342.8,629.6,344,625.6z&#10;&#9;&#9;&#9; M351.5,625.4c0,1.2-0.5,2.3-1.4,3.2c-1,1-2,1.4-3.2,1.4c-1.3,0-2.4-0.4-3.4-1.3c-1-0.9-1.5-2-1.5-3.3c0-1.3,0.5-2.4,1.4-3.4&#10;&#9;&#9;&#9;c0.9-0.9,2.1-1.4,3.5-1.4c1.2,0,2.3,0.5,3.2,1.4C351,623,351.5,624.1,351.5,625.4z M389.1,625.4c0,1.2-0.5,2.3-1.4,3.2&#10;&#9;&#9;&#9;c-1,1-2.1,1.4-3.4,1.4c-1.3,0-2.4-0.5-3.4-1.4c-1-0.9-1.4-2-1.4-3.2c0-1.3,0.5-2.4,1.4-3.4c0.9-0.9,2.1-1.4,3.4-1.4&#10;&#9;&#9;&#9;c1.3,0,2.4,0.5,3.4,1.4C388.6,623,389.1,624.1,389.1,625.4z" transform="matrix(1, 0, 0, 1, 63, 30)" style="fill: rgb(204, 204, 204); opacity: 1;"/></svg>